<svg width="243" height="244" viewBox="0 0 243 244" fill="none" xmlns="http://www.w3.org/2000/svg">
<path d="M89.039 94.2789C107.776 102.154 131.612 88.1064 142.18 62.9606C152.747 37.8166 146.104 10.9532 127.367 3.07881C108.636 -4.79359 84.7959 9.25825 74.2284 34.4028C63.6605 59.5486 70.3071 86.4065 89.039 94.2789ZM171.177 180.989C170.879 179.747 170.587 178.571 170.553 177.651C169.791 158.196 157.022 130.272 123.483 115.615L122.188 115.063C88.9672 101.101 60.666 110.571 45.2515 124.095C44.7216 124.556 43.7761 125.047 42.7751 125.565C41.5945 126.169 40.4132 126.798 39.31 127.557C27.7561 135.49 19.0514 146.229 14.8077 157.798C10.2951 170.078 11.2723 181.875 17.5362 191.003C20.0681 194.688 23.3388 197.383 27.2652 199.034C35.3615 202.436 44.6906 200.991 55.5003 199.32C62.3764 198.249 69.4773 197.147 76.8357 197.181C77.6353 197.245 80.6617 198.1 85.3679 200.078C90.9641 202.43 94.7739 204.617 95.5079 205.274C100.49 210.546 104.373 216.345 108.132 221.948C113.891 230.545 119.33 238.66 127.49 242.089C130.992 243.561 134.774 244.063 138.742 243.59C160.627 240.977 175.566 214.854 172.046 185.36C171.869 183.88 171.529 182.425 171.177 180.989ZM161.287 124.642C180.015 132.513 203.855 118.468 214.423 93.3219C224.99 68.1779 218.344 41.3133 199.616 33.4424C180.876 25.5669 157.039 39.6195 146.471 64.7641C135.903 89.9099 142.548 116.767 161.287 124.642ZM226.926 124.678C211.909 118.367 193.611 129.002 185.255 148.884C176.903 168.757 182.117 189.275 197.127 195.583C212.136 201.891 230.449 191.26 238.801 171.387C247.157 151.506 241.942 130.989 226.926 124.678ZM57.7671 95.3045C66.1227 75.423 60.9082 54.9061 45.8977 48.5977C30.8865 42.289 12.5793 52.9204 4.22375 72.8019C-4.12828 92.6751 1.08751 113.194 16.0986 119.503C31.1097 125.811 49.4151 115.178 57.7671 95.3045Z" fill="#F4A201"/>
</svg>
